/* XPM */
static char *e0802b353be94930db6ba2a7fc6c96fcP8mHnfNZSm4ozqMN[] = {
/* columns rows colors chars-per-pixel */
"32 32 175 2 ",
"   c #000200",
".  c #0E0F0A",
"X  c #352123",
"o  c #3D272A",
"O  c #3F2A29",
"+  c #3C3D39",
"@  c #432B2A",
"#  c #4A2E2A",
"$  c #432A26",
"%  c #4A312C",
"&  c #50312F",
"*  c #4E2F34",
"=  c #4B3433",
"-  c #4C3935",
";  c #403C39",
":  c #4D3938",
">  c #513433",
",  c #5E3637",
"<  c #543835",
"1  c #5B3937",
"2  c #5A3639",
"3  c #543B3A",
"4  c #5B3C3B",
"5  c #653B36",
"6  c #643D3B",
"7  c #6A3D3E",
"8  c #5E413D",
"9  c #53433C",
"0  c #64423D",
"q  c #6C423D",
"w  c #72423E",
"e  c #4F3E44",
"r  c #4E3F48",
"t  c #523E46",
"y  c #533F48",
"u  c #623E41",
"i  c #6B3D40",
"p  c #544145",
"a  c #5C4443",
"s  c #594A43",
"d  c #534149",
"f  c #57484F",
"g  c #5B4949",
"h  c #5D524E",
"j  c #4D4B50",
"k  c #564B51",
"l  c #5A4C51",
"z  c gray37",
"x  c #654543",
"c  c #6C4542",
"v  c #624B47",
"b  c #6D4A44",
"n  c #60474C",
"m  c #634B4A",
"M  c #6F4C4A",
"N  c #744543",
"B  c #794645",
"V  c #744945",
"C  c #7A4946",
"Z  c #764649",
"A  c #794749",
"S  c #744C4B",
"D  c #7A4B4A",
"F  c #65534E",
"G  c #6B504B",
"H  c #75514E",
"J  c #644E51",
"K  c #6B4E53",
"L  c #774F50",
"P  c #675350",
"I  c #6B5553",
"U  c #6D5853",
"Y  c #655659",
"T  c #6D5A5C",
"R  c #755453",
"E  c #7C5554",
"W  c #755956",
"Q  c #785957",
"!  c #755759",
"~  c #7B5B5C",
"^  c #62615F",
"/  c #70655F",
"(  c #645F65",
")  c #5F6364",
"_  c #636164",
"`  c #666867",
"'  c #696A66",
"]  c #676168",
"[  c #6B666C",
"{  c #746563",
"}  c #736963",
"|  c #7C6A66",
" . c #776B6B",
".. c #786A6C",
"X. c #6D726E",
"o. c #71776D",
"O. c #7D726D",
"+. c #6F6F71",
"@. c #7A6E71",
"#. c #747373",
"$. c #7D7373",
"%. c #757A72",
"&. c #777779",
"*. c #787679",
"=. c #7B7B7B",
"-. c #80504C",
";. c #825F59",
":. c #816965",
">. c #8A6962",
",. c #81756F",
"<. c #837474",
"1. c #8B7376",
"2. c #837A75",
"3. c #8B7977",
"4. c #847B7B",
"5. c #8B7A7A",
"6. c #927B7C",
"7. c #8A817D",
"8. c #92807E",
"9. c #977E81",
"0. c #8C8682",
"q. c #8E8A82",
"w. c #848484",
"e. c #938586",
"r. c #9C8285",
"t. c #968C85",
"y. c #9B8C87",
"u. c #9A8688",
"i. c #948D8B",
"p. c #9B8A89",
"a. c #9A908E",
"s. c #979394",
"d. c #9C9495",
"f. c #9C9A94",
"g. c #9B969B",
"h. c #9F9F9D",
"j. c #9E9C99",
"k. c #A48F8B",
"l. c #A1928F",
"z. c #A69697",
"x. c #A89597",
"c. c #A29997",
"v. c #A39997",
"b. c #A1969A",
"n. c #A39B9C",
"m. c #A89A99",
"M. c #A3A19C",
"N. c #ABA19F",
"B. c #A49CA3",
"V. c #A5A3A1",
"C. c #AAA3A5",
"Z. c #ACA9A4",
"A. c #ABAAA8",
"S. c #B3A9A7",
"D. c #B6AFAC",
"F. c #AFB0A8",
"G. c #B5B5AE",
"H. c #B6B3B2",
"J. c #BEB3B4",
"K. c #B7B8B2",
"L. c #BFBBBC",
"P. c #B7B9B6",
"I. c #CAB6B0",
"U. c #C0BBB7",
"Y. c #C4BCBC",
"T. c #C1B5B5",
"R. c #C3C2BC",
"E. c #CDC1BE",
"W. c #C2C2C0",
"Q. c #CCC5C7",
"!. c gray81",
"~. c #CDCAC5",
"^. c #CFCFD1",
"/. c #D8D3D0",
"(. c #EAF2F4",
/* pixels */
"y y y k y y y y y y y y y y y p y y y y y y y y y y y y r y r y ",
"y y y (.y y y y d y t t t r y d y p y y t t y y y y y y H.y y y ",
"y d y y y y y y t 3 3 = < = t : - t = < = 3 - e y y y y y y y y ",
"y d y y t y y r n ~ ;.E R ~ R ! W W Q R E ;.Q v t t y t y y d y ",
"y p t t l T p $ x R E D H H H U H S D S S E R x @ e } f y y y y ",
"y t t e p.Q.| & , Z N i w w w q c q N N i B Z 6 > 6.m.$.r y y r ",
"y d f G.S.a.:.0 c V B N C C w H C N N B B -.B i x m 5.c.9.d y y ",
"y y i./.J.y.a 1 B B w B C w w H V q N B N i B N 1 G } V.V.@.y y ",
"y y =.~.Y.t.G = c V B w w w w w w q w w w C C c 4 v ,.c.M.l d d ",
"y y X.H.G.7.W 8 0 w C B H w w w V V V C N N N 6 8 g O.M.N.h d d ",
"y y l V.n.$.I 8 0 V C B G w G q b b V V N C S 6 8 F 7.S.H.X.d t ",
"y y ) h.f.O.P 3 b V C w q w q b b b c w q V S c 3 U t.U.W.=.t d ",
"y y _ h.g.$.K 1 x w B N q b b b G b M V N Z Z x < P p.U.W.=.d d ",
"y y _ j.d.<.I 4 u V D D N b 0 0 0 0 V S A A Z 6 4 I u.T.L.&.r d ",
"y y ] B.b.<.I 6 7 N A B N c q 0 x u c Z N A Z 6 4 I p.T.Y.*.d t ",
"y t [ C.m.<.m > , 7 7 7 c M W W Q I L c 7 i i , & K p.Y.Y.=.d t ",
"d t o.K.G.7.P % 2 2 u 2 > n 5.z.x.5.n * 2 u 6 > $ K t.R.R.%.d d ",
"t d %.K.G.t.' m n ! ~ K J ..n.Q.Q.n...K K ! ! n F { q.F.G.o.r d ",
"d t ' Z.M.q.7.6.5.r.6.1.e.b.H.!.^.H.b.e.1.6.9.6.8.5.0.j.M.' t d ",
"d t z s.i.4.5.5.6.9.1.r.T.H.w.` ] w.H.T.k.1.9.6.3.4.4.d.j.Y t d ",
"t t ] B.g.$.Y t a f J 1.J.n.+     + c.J.5.J g y p Y @.g.h._ r y ",
"y t ( C.B.$.t X @ * 2 ( e.2.; . . ; 4.e.T 3 * @ o y @.n.B.] y y ",
"y t ( B.g...g @ t a n x P { O.2.2.O.{ I n x a t o p @.B.B.( y y ",
"y y [ B.d. .g % x M R c 4 R k.I.I.k.R 4 c R M x = g ..g.C.[ r y ",
"d y ^ j.c.O.a # 4 V S q 6 C ;.>.>.;.V 6 q C b 0 # a O.c.c.^ t p ",
"y y ^ n.M.O.9 % 0 V -.C N q q 5 0 q w w C L C 6 % s O.M.M.^ t p ",
"y y f j.f.} 9 % x N C N w w q 5 5 7 w w w C V 0 % 9 } f.j.f p y ",
"y y ` A.N.2.9 - x b V B C D E E L E H C C C c x = s $.Z.A.' y y ",
"y t +.H.K.7.h - 3 x R E E R R R H R W E E E x 3 - h 7.H.H.+.y y ",
"d y j *.%.g e e t t > 2 t t r t p p e t 3 > e t r d d #.*.j y y ",
"t p y y y y r y y y y t d t y t y p d d t y y y t t y y t y y y ",
"y y y y t y y t y y p t d t y y y p t t y y y y y y y y y y y y "
};
