/* XPM */
static char *Y2hlc3Q_[] = {
/* columns rows colors chars-per-pixel */
"32 32 193 2 ",
"   c #020103",
".  c #0A0102",
"X  c #04010A",
"o  c #0D0609",
"O  c #04090B",
"+  c #0E0C0B",
"@  c #040905",
"#  c #110205",
"$  c #160A05",
"%  c #1E0A07",
"&  c #150508",
"*  c #140B0C",
"=  c #1C0B0B",
"-  c #18120D",
";  c #0D0412",
":  c #0A0C10",
">  c #130F10",
",  c #180F12",
"<  c #0D1110",
"1  c #161316",
"2  c #1B1414",
"3  c #1B151E",
"4  c #16191A",
"5  c #1B1C1C",
"6  c #210E0B",
"7  c #23110D",
"8  c #211D1E",
"9  c #301D1C",
"0  c #1E221C",
"q  c #21241E",
"w  c #1F1520",
"e  c #1C1C20",
"r  c #201621",
"t  c #211C22",
"y  c #232126",
"u  c #2F2120",
"i  c #352123",
"p  c #3F2727",
"a  c #3E282A",
"s  c #3D3836",
"d  c #432C2B",
"f  c #422A26",
"g  c #4A312C",
"h  c #4E2F34",
"j  c #473434",
"k  c #4B3433",
"l  c #4B3935",
"z  c #403C39",
"x  c #473938",
"c  c #513433",
"v  c #543835",
"b  c #513738",
"n  c #5A3639",
"m  c #533A3A",
"M  c #5B3C3B",
"N  c #5B3837",
"B  c #653B36",
"V  c #653D3C",
"C  c #6A3D3D",
"Z  c #5E413D",
"A  c #54433C",
"S  c #63423D",
"D  c #6D423E",
"F  c #72433E",
"G  c #6B3D40",
"H  c #613D41",
"J  c #713F40",
"K  c #3A4446",
"L  c #454249",
"P  c #544245",
"I  c #5C4443",
"U  c #5A4943",
"Y  c #5C4A4A",
"T  c #5D524E",
"R  c #4D4B50",
"E  c #595454",
"W  c #5E5E5D",
"Q  c #535154",
"!  c #654542",
"~  c #6C4542",
"^  c #624B47",
"/  c #6E4A43",
"(  c #60474B",
")  c #644B4A",
"_  c #6F4C4B",
"`  c #744543",
"'  c #784645",
"]  c #744945",
"[  c #7A4946",
"{  c #764648",
"}  c #794749",
"|  c #754C4B",
" . c #7A4C4B",
".. c #65534E",
"X. c #6B504B",
"o. c #73504E",
"O. c #634D50",
"+. c #6B4E53",
"@. c #774F50",
"#. c #665450",
"$. c #6B5553",
"%. c #655659",
"&. c #6F5B5C",
"*. c #755453",
"=. c #7C5554",
"-. c #755856",
";. c #745759",
":. c #7B5B5C",
">. c #785957",
",. c #62615F",
"<. c #645F65",
"1. c #5D6464",
"2. c #636164",
"3. c #666867",
"4. c #696A66",
"5. c #676168",
"6. c #6A6A69",
"7. c #6C6568",
"8. c #746561",
"9. c #7C6A66",
"0. c #776B6B",
"q. c #786A6C",
"w. c #736A63",
"e. c #6E726E",
"r. c #7C726D",
"t. c #71776D",
"y. c #6F6F71",
"u. c #7A6E71",
"i. c #747372",
"p. c #7D7273",
"a. c #79767A",
"s. c #7C7C7C",
"d. c #757974",
"f. c #80504C",
"g. c #825F59",
"h. c #8A6962",
"j. c #816965",
"k. c #81756F",
"l. c #837474",
"z. c #8B7377",
"x. c #837975",
"c. c #857B7A",
"v. c #8B7A7A",
"b. c #927B7C",
"n. c #8A817C",
"m. c #92807E",
"M. c #967D80",
"N. c #8C8682",
"B. c #8E8A82",
"V. c #848484",
"C. c #948586",
"Z. c #9A8688",
"A. c #948D8B",
"S. c #9A8A89",
"D. c #998885",
"F. c #9A908E",
"G. c #9C9495",
"H. c #9C9A95",
"J. c #9D979B",
"K. c #9E9C9B",
"L. c #959394",
"P. c #A48F8A",
"I. c #A1928F",
"U. c #A69697",
"Y. c #A29A97",
"T. c #A1969A",
"R. c #A39B9C",
"E. c #A89A99",
"W. c #A3A19C",
"Q. c #ABA19F",
"!. c #A49DA2",
"~. c #A5A3A1",
"^. c #ACAAA5",
"/. c #A9A3A5",
"(. c #B6AFAC",
"). c #B3A9A7",
"_. c #AFB0A8",
"`. c #B4B6AE",
"'. c #B8B5AE",
"]. c #B6B3B2",
"[. c #BEB3B4",
"{. c #BABAB6",
"}. c #C8B5AF",
"|. c #C3BCBB",
" X c #C1B5B5",
".X c #C3C2BC",
"XX c #CCC1BE",
"oX c #CCC5C7",
"OX c #CFCECE",
"+X c #C8C5C3",
"@X c #C9D1D3",
"#X c #D8D3D0",
"$X c #F0F9F8",
/* pixels */
"    @ 1.  @     . . . . # . . . .   . # . . .     .     K O   @ ",
": O   $X    @   $ - 6 % 6 % $ = = $ % 6 % 6 6 $ $   O   @X  X O ",
"    : < @ @   7 d m m c c b l b l l v c c m m d @       4 : X X ",
"; Q     q - - 7 ) :.g.*.;.>.;.;.-.-.>.o.*.:.:.Y 9 $ 2 q     L   ",
"      * ,.x.I d I =.=. .o.-.-.-.o.o.| | } =.=.! d j w.E o X   X ",
". * * z I.XXj.c V { { C F F D F F D ` ` J ] { N c b.E.l.s   & . ",
". o E (.).I.j.S ! ' [ F [ F F F ] ` ` [ ' ' { ~ ! ^ v.Y.c.E 1 X ",
"o 8 A.#X'.S.I N ` ' ` ' [ ` F / ` D ` [ ` ` ' ` N ) 9.Q./.i.8   ",
"  y s.OXXXD.#.c D ] [ F F F F F ` F F F F [ { ~ Z ^ k.W.W.4.0   ",
"  5 e.'.(.n.$.Z S D F [ F o.o.F / ~ [ [ ` ` ` B Z Y k.W.Q.4.4   ",
"  4 1.W.R.p.$.Z S ] [ [ F F F D / / ` ] ` [ | ! Z ..n.Q.].e.0   ",
"  e 1.W.H.r...m / ] [ F D F X.X.X./ ~ ~ F ` | ~ m #.S..X.Xs.0   ",
"X e 1.!.G.p.$.M ! ` ] ` F ` / / X./ ] ] ` { { ! n #.S.|..Xs.e @ ",
"  e 2.K.G.u.$.M S `  .} ] / S Z S S ~ | } } { H M $.Z.[.{.a.e X ",
"X e 5.!.U.l.$.n C ` } ' ` ~ D S ~ ! ] ] J } { V M $.S. X|.a.e O ",
"  e 6./.R.z.+.c N C G C ! | -.-.;.$._ ~ G G G B c ) S.|..Xa.e   ",
"@ 0 t.`.'.B.#.g n n H n h ) v.Y.U.v.( h n H n n f O.A..X.Xt.0 @ ",
"@ 0 t.{.'.B.7.Y ( ;.:.+.O.q.R.+XoXR.q.O.+.:.;.( #.w.B._.`.t.0   ",
"  0 4.^.W.B.v.M.b.Z.b.z.C.T.].OXOX].U.C.z.M.M.b.b.v.N.K.W.4.0   ",
"  4 W L.A.c.c.v.b.b.z.Z. X].V.3.5.V.].[.Z.z.M.M.v.c.c.G.H.,.5   ",
"  e <.!.J.p.%.P P ( O.z.[.Y.s     s R.[.v.O.Y P P %.p.J.K.<.e X ",
". w <.!.!.p.P i d h b &.C.c.A O < z x.C.&.b j d i P u.!./.<.r X ",
"X r <.!.J.u.P a H I ( ! $.8.r.x.x.r.8.$.( ! I M a P u.U.!.<.w X ",
"X r y.!.G.q.Y g ( o.*.! M -.P.}.}.P.>.M ! *.| ) k O.u.T./.7.t X ",
". t 2.R.Y.r.I f V ] | D D ] g.h.h.g.] C C ] / S d U r.Y.H.2.8   ",
"  5 1.W.W.r.U g S |  .[ F F D B S D F F [ f.| S g U r.W.R.,.5   ",
"  4 %.H.H.w.A g S ~ ' ` F F C B B B F F ' [ ` S g A w.H.H.W 5   ",
"  5 4.^.Q.k.A l ! ] ] { ] o.f.=.=.f.@.[ ` ] ~ ! k U r.^.^.4.5   ",
"  y y.].`.n.T l m ! *.>.=.;.*.*.*.*.*.=.>.@.! m k T N.].].y.e   ",
"X w R a.d.E x q 9 f c n b j j j x j l b n k d 9 q s Q i.a.R 3   ",
"; ; w t e 4 - o # & = = = , , 1 1 , * = = = & # & * 1 e y w ; ; ",
"X X X       .   .   . . .             . . . . .   o X   X X X X "
};
