/* XPM */
static char *Zmxvb3I_[] = {
/* columns rows colors chars-per-pixel */
"32 32 11 1 ",
"  c #4C3841",
". c #4D3942",
"X c #4E3A43",
"o c #4F3B44",
"O c #503C45",
"+ c #513D46",
"@ c #523E47",
"# c #533F48",
"$ c #544049",
"% c #55414A",
"& c #56424B",
/* pixels */
"##########$$$$##########+++$####",
"########+#$$#$#############$$#$+",
"###########$##############$$$#+#",
"########$$++############+++$##$+",
"########$#+++###########XX+++###",
"########$+oo#$#+########XXo+####",
"########&#XX+$#+########++$$####",
"########&+XX+$#+########&&&$$$$+",
"################+$$$$###$#######",
"#################$$$############",
"################################",
"################$##+############",
"################$+++############",
"################$#oo+$#+########",
"################$#XX+$#+########",
"################&+XX+$#+########",
"#########$##+#+##++++++#########",
"########+++++++++#+$$$$$########",
"#########+oo+o+#++$$$&$#########",
"########+++o+++##$$$$$++########",
"##########+++#$$#$$$#+oX########",
"########+++##$$$$$$#++XX########",
"########X+##$$#+$$##++++########",
"#######+XX+#$#++####$#$$########",
"################################",
"################################",
"################################",
"################################",
"################################",
"################################",
"################################",
"################################"
};
