/* XPM */
static char *cGxheWVy[] = {
/* columns rows colors chars-per-pixel */
"32 32 210 2 ",
"   c #020103",
".  c #0B0103",
"X  c #010903",
"o  c #04050A",
"O  c #0A030A",
"+  c #040A0B",
"@  c #0B0B0C",
"#  c #130102",
"$  c #1C0001",
"%  c #13040A",
"&  c #1C030D",
"*  c #120C0D",
"=  c #1A090B",
"-  c #130900",
";  c #051008",
":  c #090712",
">  c #000A11",
",  c #0C0D11",
"<  c #160D10",
"1  c #0D1112",
"2  c #071512",
"3  c #141315",
"4  c #15161B",
"5  c #1D191A",
"6  c #230001",
"7  c #2B0202",
"8  c #240B0D",
"9  c #2B050D",
"0  c #330101",
"q  c #360A09",
"w  c #2A120F",
"e  c #230912",
"r  c #360B18",
"t  c #211218",
"y  c #37161A",
"u  c #26271F",
"i  c #0F1E21",
"p  c #1C1C22",
"a  c #191922",
"s  c #220F25",
"d  c #201921",
"f  c #3B132B",
"g  c #1C2125",
"h  c #1C272C",
"j  c #212426",
"k  c #23252A",
"l  c #272A29",
"z  c #2B2D31",
"x  c #272B34",
"c  c #362739",
"v  c #2D3035",
"b  c #33333A",
"n  c #31353A",
"m  c #430001",
"M  c #4B0008",
"N  c #59191F",
"B  c #430B14",
"V  c #721D1A",
"C  c #6F1E2D",
"Z  c #46272C",
"A  c #552420",
"S  c #452F3B",
"D  c #5D2239",
"F  c #563235",
"G  c #7F292B",
"H  c #75332B",
"J  c #6C2F3F",
"K  c #722D32",
"L  c #7D373F",
"P  c #6F3736",
"I  c #493A43",
"U  c #503E4A",
"Y  c #623B42",
"T  c #334247",
"R  c #42414A",
"E  c #46484D",
"W  c #4D4D55",
"Q  c #4F565C",
"!  c #545559",
"~  c #684549",
"^  c #76464A",
"/  c #70554C",
"(  c #744853",
")  c #6B5D5C",
"_  c #67575C",
"`  c #7C5553",
"'  c #565C62",
"]  c #636465",
"[  c #66686C",
"{  c #78666A",
"}  c #796C77",
"|  c #6E7279",
" . c #6F7075",
".. c #717277",
"X. c #841619",
"o. c #85231A",
"O. c #891E2D",
"+. c #981421",
"@. c #982D25",
"#. c #872E30",
"$. c #893436",
"%. c #973031",
"&. c #A02C2D",
"*. c #A3322C",
"=. c #A82B36",
"-. c #B42D36",
";. c #A73B39",
":. c #B5313C",
">. c #A8413C",
",. c #873945",
"<. c #983643",
"1. c #8C3D50",
"2. c #B43842",
"3. c #C63D44",
"4. c #844C4F",
"5. c #994140",
"6. c #85565A",
"7. c #904E5B",
"8. c #AE4441",
"9. c #A34A4D",
"0. c #B84143",
"q. c #A24A52",
"w. c #BA4150",
"e. c #B55158",
"r. c #955965",
"t. c #BB5E68",
"y. c #88666C",
"u. c #966367",
"i. c #896E73",
"p. c #986D75",
"a. c #8E7778",
"s. c #BA616A",
"d. c #A16E73",
"f. c #B37B7B",
"g. c #AE6D6C",
"h. c #C1434E",
"j. c #CF4859",
"k. c #CD5763",
"l. c #C7696E",
"z. c #D16A61",
"x. c #D56F7A",
"c. c #DC727C",
"v. c #C5747B",
"b. c #777A83",
"n. c #677A80",
"m. c #877C86",
"M. c #DC7181",
"N. c #EB7D88",
"B. c #7C838B",
"V. c #788688",
"C. c #83848A",
"Z. c #86838A",
"A. c #958B8C",
"S. c #838B92",
"D. c #8A8C98",
"F. c #86929A",
"G. c #989898",
"H. c #958D9C",
"J. c #A38D90",
"K. c #A69797",
"L. c #B59193",
"P. c #999BA9",
"I. c #979BA6",
"U. c #B39AA3",
"Y. c #A59DAC",
"T. c #8EA1A5",
"R. c #9BA2AD",
"E. c #9FA5B0",
"W. c #A2A4AB",
"Q. c #A6A7A6",
"!. c #A5ACB3",
"~. c #A6A8B7",
"^. c #AAB9BD",
"/. c #B1B4BD",
"(. c #B3BBBD",
"). c #B9A6A8",
"_. c #F49495",
"`. c #D8B6B7",
"'. c #FFAAAB",
"]. c #AFBBC1",
"[. c #ACB2C0",
"{. c #B4BBC4",
"}. c #B7B9C3",
"|. c #C6BFC7",
" X c #BDC2C7",
".X c #BBC3CC",
"XX c #B3C1C7",
"oX c #C2C5CB",
"OX c #C7C3C4",
"+X c #C1C9D4",
"@X c #CECED2",
"#X c #C1C4D3",
"$X c #CED1D6",
"%X c #CDD1DA",
"&X c #D5D4D7",
"*X c #E2CCCE",
"=X c #F9DADF",
"-X c #FEE1DD",
";X c #D9DBE3",
":X c #D9E1EC",
">X c #DAE0F0",
",X c #EAE8EA",
"<X c #FFE7ED",
"1X c #F1EAF1",
"2X c #EEF8FF",
"3X c #FFF4F3",
"4X c #F4FDFF",
"5X c #F9FFFF",
"6X c #FCFFFF",
"7X c #F0F6FF",
/* pixels */
"        o @   @ % = . $ $ 6 6 6 . @ X . o + . . X 1 @ o       o ",
". O         o     % # 8 9 q q 6 % * @           @     X   @ +   ",
"      @   , 4   .   # 8 F ~ ^ A 5 3 5 +   o     @X@ 3         + ",
"      @   ,     .   % & Z / p.U *   +     o     $X@       @ o   ",
"O       o :   ,   : . t & f y.} 5 o o o o >   o       @     1   ",
"        , o   o O a |.  . I } m.I h i h a h x a 4 + ,X}.  ,   X ",
"    . + o   4   o   o a U } m.m.F.F.B.B.b.S.I.[ g     + .   @   ",
"      O o o | n 4 : : c b.Y.H.m.P.{.{.{.]..X@XS.v   o   X   *   ",
"      . o       o a T b.E.Y.P.P.E.E.!.I.R.(. X..g o       O .   ",
"      o o       o k | ~.[.[.[.|..X.X.X.X.X.X;XW.x         o     ",
"      o o       o k m.{.~.[.>X2X5X5X6X6X6X6X6X}.n o       o     ",
"      .         : k b.{.E.{.5X5X%X.XoXoX$X&X&XG.k         + .   ",
"      o .         g C.XXR.+X2X:X'   + z E E b 3 3         @ O   ",
"      o .         k C./.E.+X2X:X] 3 l d     5 d 3         @ @   ",
"      o X       o k ..R.R.+X2X5X@X&X,XA.  3 Q.OXl .       o     ",
"      .           , E b.G./.;X1X<X3X3X`.F P =X*XI %   X o       ",
". . # % . *   O + o 2 n } U.U.L.f.g.l.l.e.s.v.r.q .   X   + +   ",
"$ ` ^ 6 $ 6 # e @ + o p _ p.u.4.H H V ;.l.x.q.N q .     X X     ",
"7 L <.M.<Xt.$.0 6 # . = Y 7.1.,.6./ ` u.g.f.d.F w   X X X . . . ",
"7 q.:.j.2.k._.m M B & e Y 7.7.r.J.G.Q.K.a.J.).{ 5 X   X   X . . ",
"0 #.:.:.>.>.>._.9.K 7 w ) a.u.i.Q.XX].E.!..X].V.g X       . # . ",
"0 5.=.3.X.z.o.;.e.G 7 w ) G.J.A.V.V.F.B.n.T.^.V.l         # .   ",
"0 9.:.3.*.@.@.>.:.X.0 q ) G.G.m.b s c x > T F.V.h     .   .     ",
"7 #.&.-.@.>.>.;.w.O.m r ] G.m.U Z & % O : x ' Q p   . . .       ",
"$ P %.+.@.;.8.2.w.O.7 y m.B.I r D D 9 e _ [ z 1 . O O         o ",
"  -Xt.c.'.V G $.<.C 7 t ! W d & Y Y 9 y ) ] j     . . O o       ",
"X   $ 7 $ 7 q A N r % > h i o   D B $ - u u ;       O . o   o o ",
"X X # # - . . # $ #   o   +   + # #     X X X 2 X         o     ",
"    = # X X   . . % O o     X X X     X X X X X                 ",
"  % .   X X X   O O O O O .     o X   X X                       ",
"  . # %       o   o o o . $ . . o O       .   @               . ",
"O . # %         o >     . # # .   O o O O . . .           .   . "
};
