/* XPM */
static char *_c6da76ea4724299d4e3a6103dc2e531jG83K1gToEOyMynk[] = {
/* columns rows colors chars-per-pixel */
"32 32 198 2 ",
"   c #020103",
".  c #0A0309",
"X  c #110008",
"o  c #1E030E",
"O  c #110D0E",
"+  c #040812",
"@  c #1A181A",
"#  c #2C0101",
"$  c #28000B",
"%  c #2E0A0E",
"&  c #340304",
"*  c #3C0000",
"=  c #340C0B",
"-  c #2A130F",
";  c #210511",
":  c #220F25",
">  c #201E21",
",  c #3B132B",
"<  c #2A2C34",
"1  c #362739",
"2  c #2B262A",
"3  c #430101",
"4  c #4C0005",
"5  c #5C1B1F",
"6  c #761A1B",
"7  c #6F1E2D",
"8  c #47282E",
"9  c #40252C",
"0  c #4A2F37",
"q  c #5D2239",
"w  c #52363F",
"e  c #573539",
"r  c #7E2B27",
"t  c #75332A",
"y  c #6B2E3E",
"u  c #722D32",
"i  c #7D373F",
"p  c #4E3D45",
"a  c #4C3D48",
"s  c #433340",
"d  c #523D46",
"f  c #533F48",
"g  c #5C3B42",
"h  c #623D41",
"j  c #6C3D45",
"k  c #334247",
"l  c #414048",
"z  c #4A454B",
"x  c #534046",
"c  c #524149",
"v  c #4D4D55",
"b  c #5F545A",
"n  c #63434B",
"m  c #6B464C",
"M  c #734549",
"N  c #70554C",
"B  c #704D53",
"V  c #62545A",
"C  c #6A5C5C",
"Z  c #6A585D",
"A  c #7C5550",
"S  c #565C62",
"D  c #636465",
"F  c #66686C",
"G  c #776368",
"H  c #6C6F78",
"J  c #7A6C77",
"K  c #6F7277",
"L  c #7B717A",
"P  c #881713",
"I  c #85231A",
"U  c #8A1D2D",
"Y  c #981421",
"T  c #81282E",
"R  c #982D25",
"E  c #973226",
"W  c #982932",
"Q  c #893436",
"!  c #96363A",
"~  c #A02C2D",
"^  c #A3322C",
"/  c #A72832",
"(  c #A92F3E",
")  c #B42D36",
"_  c #A93D3D",
"`  c #A53A37",
"'  c #B7313C",
"]  c #A7413C",
"[  c #AC433F",
"{  c #873C4B",
"}  c #983743",
"|  c #B53842",
" . c #C63D44",
".. c #844C4D",
"X. c #8B4B5B",
"o. c #924859",
"O. c #86565A",
"+. c #94565D",
"@. c #AF4442",
"#. c #A0474D",
"$. c #B84143",
"%. c #A54B54",
"&. c #BA4150",
"*. c #B65258",
"=. c #955965",
"-. c #BB5E68",
";. c #88666C",
":. c #966367",
">. c #896E73",
",. c #986D75",
"<. c #907679",
"1. c #8C7879",
"2. c #A4696D",
"3. c #BD616C",
"4. c #B9726E",
"5. c #A16E73",
"6. c #B47B7B",
"7. c #C1434E",
"8. c #CF4857",
"9. c #CD5763",
"0. c #C36B6E",
"q. c #CF656F",
"w. c #D16A61",
"e. c #D9717C",
"r. c #C5747B",
"t. c #677A80",
"y. c #757E83",
"u. c #7A7784",
"i. c #867E83",
"p. c #8D7B87",
"a. c #817D8B",
"s. c #DC7181",
"d. c #EC7E89",
"f. c #7C838B",
"g. c #778688",
"h. c #83848B",
"j. c #86838A",
"k. c #928A8D",
"l. c #9B8D8C",
"z. c #838B92",
"x. c #8C8C98",
"c. c #948E9C",
"v. c #85939A",
"b. c #88929B",
"n. c gray61",
"m. c #969696",
"M. c #A38D90",
"N. c #A69797",
"B. c #B59193",
"V. c #999BA9",
"C. c #979BA6",
"Z. c #A89EAA",
"A. c #B49AA3",
"S. c #8EA1A5",
"D. c #9BA2AD",
"F. c #9FA5B0",
"G. c #A2A6AA",
"H. c #A6A7A6",
"J. c #A4A2B0",
"K. c #A4ACB3",
"L. c #A7ACBA",
"P. c #ABB9BD",
"I. c #B3B5BC",
"U. c #B3B6B8",
"Y. c #B9A6A8",
"T. c #F49593",
"R. c #D8B6B5",
"E. c #F8A8A7",
"W. c #AFBBC1",
"Q. c #ACB2C0",
"!. c #B4BBC4",
"~. c #B5B7C4",
"^. c #BCC3C7",
"/. c #BBC3CC",
"(. c #B3C1C7",
"). c #BFC9D2",
"_. c #C2C5CB",
"`. c #C8C4C5",
"'. c #C1CAD5",
"]. c #C8C9D3",
"[. c #CED1D6",
"{. c #CDD1DA",
"}. c #DADADE",
"|. c #D5D4D6",
" X c #E1CBCD",
".X c #F9DBDB",
"XX c #D9DBE3",
"oX c #D9DEF1",
"OX c #D9E1ED",
"+X c #FFE7ED",
"@X c #F1EAF1",
"#X c #EEF7FF",
"$X c #EFF8FF",
"%X c #FFF4F3",
"&X c #F0F7FF",
"*X c #F4FDFF",
"=X c #FAFFFF",
"-X c #EBE5E7",
/* pixels */
"f c f f f f f f f f f f f p d f f f f f f f f f f f f f f f f f ",
"f f f f f f f f f f f d p = * d f f f f f f f f f f g f f f f f ",
"f f d f f f f f f f f d 0 M M p d f f f f f f f U.f f f f f f f ",
"d f c f f f f f d f f d 8 B ,.f f f f f f f c c U.d f f f f f f ",
"f f c d f f f f f f f d ; 9 ;.G f f f f f f c x f f f f f f f c ",
"f f f d f f f f f f Z.. . s G p.a p f z p f a p f f }.n.f f f f ",
"f f f f f f f f f f d p a J p.p.z.b.f.f.f.z.m.F f f f f f f f f ",
"c f f c f x V p d f f a u.Z.c.a.V.(.W.!.Q./.{.z.d f f f f f d f ",
"d f f f d x c f f d c u.J.J.V.V.D.D.K.C.D.I.!.K d d f f f f f f ",
"c f f f f f f f f p H K.~.L.~.).'.)./.^.)._.XXG.d f f f f f f f ",
"f f f f f f f f f p u.!.L.L.oX&X*X=X=X=X=X=X=X!.p f f d f f f f ",
"f f f f f f f f f f h.!.D./.*X*X{.^._._.[.}.|.L d d f f f f f f ",
"f f f f f f f f c p z.!.F.'.&XOXS   + 2 z z x c d f f f f f f f ",
"f f f f f f f f f f h.I.F.'.&XOXD @ 2 >     @ c f f f f f f f f ",
"f f f f f f f f f p K V.D.'.*X*X[.|.-Xk.. O H.`.f f f f f f f f ",
"f f f f f f f f f f p y.m.Q.XX@X+X%X%XR.e e .X Xd f f f f f f f ",
"z f d d f f d d f f f a J A.A.B.6.4.0.0.*.3.r.+.w x f d f f f f ",
"f n j p f d d p f f f f Z 5.:...t t 6 ! q.e.#.5 x x f f f f f f ",
"f j } s.+X-.j & d d f f g X...{ O.N A :.2.6.2.e x d c c f f f f ",
"g j | 8.| 9.T.3 4 p f f h X.o.=.N.m.H.N.1.l.Y.V c c c d f f f f ",
"f h | | $.[ ] T.#.u # - C <.:.>.H.(.W.K.K.^.P.g.d f f f f f f f ",
"f j /  .P w.I ! *.T # - C m.l.k.z.g.v.g.K S.P.g.d f f f f f f f ",
"f j '  .^ E E @.| P * = C n.n.i.1 > 1 < + k v.g.d x f f f f f f ",
"f Q / ) R ` _ _ | U 3 % C n.j.p , o X . + < S v f c f f f f f f ",
"f g W Y ~ _ @._ | U $ f i.a.s d q q $ ; V F d f f f f f f f f f ",
"f .X+.e.E.6 T Q } 7 c f c v d f h y p d C D d f f f f f f f f f ",
"d f f d c d w w g p f f x p c f p p f c c f f f f f f f f x f f ",
"f f f f c x x x f f f f x c c x x d f f f c f f f f f f f c d f ",
"f f f f c f f f f f f f f f f f f f f f f f c f f f f f f f f f ",
"f f f f x f f f f f f f f f f f f f f f f f f f f f f f f f f f ",
"f f f f d f f f f f f f f f c f f f f f f f f f f f f f f f f f ",
"f f f f c f f f f f f f f f f f f f f f f f f f f f f f f f f f "
};
