/* XPM */
static char *d2FsbA__[] = {
/* columns rows colors chars-per-pixel */
"32 32 129 2 ",
"   c #222E46",
".  c #282F49",
"X  c #27334B",
"o  c #2B344D",
"O  c #293553",
"+  c #2D3A54",
"@  c #2E3C59",
"#  c #303751",
"$  c #323C55",
"%  c #333E5A",
"&  c #35425C",
"*  c #3A435C",
"=  c #3B4A5F",
"-  c #374461",
";  c #3A4662",
":  c #3D4A64",
">  c #3B4769",
",  c #3F4B6A",
"<  c #424C65",
"1  c #424D6A",
"2  c #425166",
"3  c #45526C",
"4  c #49546E",
"5  c #49586F",
"6  c #414E70",
"7  c #465372",
"8  c #4A5672",
"9  c #4C5A73",
"0  c #485578",
"q  c #4C5A79",
"w  c #515C76",
"e  c #515E79",
"r  c #516077",
"t  c #55627D",
"y  c #58637F",
"u  c #566382",
"i  c #596683",
"p  c #5E6B86",
"a  c #5E6C8A",
"s  c #616C87",
"d  c #626E8B",
"f  c #65718D",
"g  c #69738E",
"h  c #646F91",
"j  c #657292",
"k  c #6A7593",
"l  c #697792",
"z  c #687693",
"x  c #6B7692",
"c  c #6A7591",
"v  c #6C7691",
"b  c #6C7793",
"n  c #697794",
"m  c #6B7694",
"M  c #697694",
"N  c #6A7893",
"B  c #6C7892",
"V  c #6D7993",
"C  c #6A7895",
"Z  c #6D7894",
"A  c #6E7995",
"S  c #6C7A95",
"D  c #6E7A94",
"F  c #6D7B96",
"G  c #6C7A97",
"H  c #6F7A96",
"J  c #6B7994",
"K  c #697699",
"L  c #6F7D98",
"P  c #6E7C99",
"I  c #6D7A9B",
"U  c #707B99",
"Y  c #727D99",
"T  c #707E99",
"R  c #727D9B",
"E  c #707E9B",
"W  c #737E9A",
"Q  c #717F9C",
"!  c #707E9C",
"~  c #717EA1",
"^  c #75819B",
"/  c #73819C",
"(  c #72809D",
")  c #73819E",
"_  c #76819D",
"`  c #76829C",
"'  c #77839D",
"]  c #75809E",
"[  c #76819F",
"{  c #76849F",
"}  c #78829D",
"|  c #78839F",
" . c #78849E",
".. c #79859F",
"X. c #7A849F",
"o. c #7583A0",
"O. c #7782A0",
"+. c #7785A2",
"@. c #7582A3",
"#. c #7883A1",
"$. c #7984A0",
"%. c #7B85A0",
"&. c #7A85A1",
"*. c #7A86A0",
"=. c #7987A2",
"-. c #7886A3",
";. c #7C86A1",
":. c #7987A4",
">. c #7B86A4",
",. c #7986A7",
"<. c #7E88A3",
"1. c #7B89A6",
"2. c #7E89A5",
"3. c #7F8BA5",
"4. c #7E89A7",
"5. c #7A87AA",
"6. c #7D8BA8",
"7. c #7C89AA",
"8. c #808BA7",
"9. c #808CA6",
"0. c #818DA7",
"q. c #838FA9",
"w. c #838EAA",
"e. c #848FAD",
"r. c #808DAD",
"t. c #8591AB",
"y. c #8691AD",
"u. c #8694AF",
"i. c #808DB0",
/* pixels */
"4 : $ # X o o + o # . o #     & < < * . o # # o # o . . . # # . ",
"2 < = < : = = : * < = < 2 : < 2 < < < < * * < * < < < * < < < < ",
"< 4 y f B f f g s s s d f g s r 4 4 e g f f B f s s g g s s s s ",
"* q D 9.3.' ` ..8.W 8.~ ^ 0.q.D 4 4 v t...^ <.{ } 8.} 8.%.X.<.8.",
"< i W e.' g g B v m v k g #.y.} w w U u.Y f S n B S k k H } 8.y.",
"% 3 i s t 4 4 9 w w w 4 3 w i i < < u j e 3 7 9 r q 8 7 4 w y s ",
"O # % - % $ % & 6 6 < % % ; - ; o O % - & @ @ & 7 , ; - & % * < ",
"7 1 ; > , > > 1 < 6 > & > < % > 1 , - - > , - , , , ; ; > > > & ",
"h v v h d k k u 8 < e U g d j d d z m g d m h u 3 , t C z a a f ",
"R ~ #.R U >.4.U 9 q Z i.#.U #.W ) ) +.W U >.<.U 5 q z 6.+.P ( =.",
"g g c s d Y %.H 4 8 m 8.b s f g f f h s d U X.v 3 9 n =.S a a f ",
"i e i i y g H g 4 3 s c s y y y y t y i e h A h 3 0 f L f t t i ",
"d s s s s g B s 8 3 w y s s g f d s s p s g v s 8 w s v f s s f ",
"s e e w 8 w w 3 < % % ; 5 w w w y t w w 8 w w 1 < * 1 8 9 9 w w ",
"3 < * * % * * $ $ # O O * % $ & < < * * % * * # $ # $ * % $ * $ ",
"4 < ; ; * : < - ; < 1 1 < ; * : 1 < < < * ; 1 * < ; < < < ; < < ",
"> 0 u j K j a a j K K a u ( j u 7 1 u I j a K h h h j h h h h h ",
"> q K 5.@.@.@.@.( @.@.( ( @.5.( 0 0 h i.@.( @.@.~ ~ ( ( ~ @.5.5.",
"> 0 ( ( ( j j ( j a ( a a ( ( a 8 8 K ~ G a j j j h h j j C ~ 5.",
"- q a ( j u 5 q q u u u u a ( ( 3 8 h ~ d r t t u u u u i a z P ",
", q a ( ( r r r a a a a p a ( a 8 q p l f p p f p p p p p a f l ",
"= : 5 5 r , = = u u r r 9 9 5 , * ; , 5 r 5 5 r t t r r 9 9 5 5 ",
"@ @ & & - @ @ @ , = = = @ & - @ $ % % & & & & & , : : & & & & & ",
", = = = : = = 7 , : = - & - > - - 1 , : : : & : 5 , - & : , ; = ",
"j a j j a ( a u , , a ( j a a j a j K a p ( j u , , u K z a a j ",
"o.o.@.( ( 5.5.( , u ( 5.5.( @.5.@.@.@.( ( 5.5.( r t K 7.5.( o.5.",
"j j j j j ( o.( 0 u j ( ( a a h j j j j a ( ( K , q j @.K a a j ",
"u a u u u a j a , , a ( a u u u u u u u u a ( a , u j ( j u u u ",
"a p ( a u a j a 5 5 a ( ( a a f a a a a p f ( p 5 9 t / a a a a ",
"r r r u q u u q 5 : 5 r 9 r t t u r t u r t r 5 , = 5 t u r t u ",
"5 5 5 5 5 5 9 2 5 : 5 9 2 2 5 5 5 5 5 5 2 5 5 5 5 , 5 5 5 5 5 , ",
"= = = = = = , = 2 = = 2 = = , = = = , : = = : = : = : 2 = = , : "
};
